<?xml version="1.0" encoding="UTF-8" standalone="no"?>
<!DOCTYPE svg PUBLIC "-//W3C//DTD SVG 1.1//EN" "http://www.w3.org/Graphics/SVG/1.1/DTD/svg11.dtd">
<svg width="100%" height="100%" viewBox="0 0 800 95" version="1.1" xmlns="http://www.w3.org/2000/svg" xmlns:xlink="http://www.w3.org/1999/xlink" xml:space="preserve" xmlns:serif="http://www.serif.com/" style="fill-rule:evenodd;clip-rule:evenodd;stroke-linejoin:round;stroke-miterlimit:2;">
    <g transform="matrix(1,0,0,1,-100,-1789.83)">
        <g transform="matrix(1,0,0,0.45,0,1650)">
            <g transform="matrix(5.18874,0,0,11.5305,1535.44,-15946.1)">
                <g transform="matrix(0.57605,0,0,0.57605,-324.212,947.684)">
                    <path d="M110.851,820.837L110.851,833.552L102.132,833.552L102.132,833.485L93.435,819.512L93.435,828.342L95.532,828.342L95.532,830.02L94.649,830.02L94.649,829.181L85.797,829.181L85.797,830.02L93.435,830.02L93.435,830.439L88.291,830.439L88.291,831.146L93.435,831.146L93.435,833.552L84.693,833.552L84.715,809.292L86.592,809.292L86.592,810.948L87.055,810.948L87.055,809.292L88.225,809.292L88.225,808.608L89.594,808.608L89.594,807.769L87.055,807.769L87.055,806.864L86.592,806.864L86.592,807.769L84.715,807.769L84.715,806.864L82.574,806.864L82.574,806.025L84.715,806.025L84.715,803.023L93.435,803.023L102.132,816.974L102.132,813.751C101.852,813.648 101.624,813.475 101.447,813.232C101.271,812.99 101.183,812.714 101.183,812.405L101.183,804.48C101.183,804.171 101.271,803.895 101.447,803.652C101.624,803.409 101.852,803.236 102.132,803.133L102.132,803.023L110.851,803.023L110.851,804.943L113.39,804.943L113.39,806.356L102.617,806.356L102.617,807.085L110.851,807.085L110.851,819.557L112.154,818.254L112.794,818.894L110.851,820.837ZM87.055,806.025L87.055,804.259L86.592,804.259L86.592,806.025L87.055,806.025ZM101.999,822.029L102.286,822.316L105.73,818.894L105.421,818.585L101.999,822.029ZM104.229,822.029L104.538,822.316L107.959,818.894L107.672,818.585L104.229,822.029ZM106.48,822.029L106.767,822.316L110.211,818.894L109.902,818.585L106.48,822.029ZM109.019,822.316L112.44,818.894L112.154,818.585L108.71,822.029L109.019,822.316Z" style="fill:white;fill-rule:nonzero;"/>
                </g>
                <g transform="matrix(0.57605,0,0,0.57605,-324.212,947.684)">
                    <path d="M139.592,803.023L139.592,811.742L122.153,811.742L122.153,813.928L130.872,813.928L130.872,822.647L122.153,822.647L122.153,824.81L139.592,824.81L139.592,833.53L122.153,833.552L113.434,833.552L113.434,832.978C112.963,832.698 112.727,832.293 112.727,831.764L112.727,823.839C112.727,823.295 112.963,822.882 113.434,822.603L113.434,819.336L113.081,819.336L113.081,818.961L113.434,818.961L113.434,806.069L115.332,804.149L114.869,803.685L113.434,805.12L113.434,803.023L139.592,803.023ZM138.952,827.768L138.952,829.799L139.57,829.799L139.57,827.768L138.952,827.768ZM134.139,827.768L134.139,829.799L138.775,829.799L138.775,827.768L134.139,827.768ZM133.367,827.768L133.367,829.799L133.919,829.799L133.919,827.768L133.367,827.768ZM132.175,827.768L132.175,829.799L132.506,829.799L132.506,827.768L132.175,827.768ZM130.784,827.768L130.784,829.799L131.822,829.799L131.822,827.768L130.784,827.768ZM128.334,827.768L128.334,829.799L130.078,829.799L130.078,827.768L128.334,827.768ZM117.12,803.685L113.5,807.283L113.986,807.747L117.584,804.149L117.12,803.685ZM115.553,820.086L115.553,819.711L114.162,819.711L114.162,819.314L113.787,819.314L113.787,827.084L114.162,827.084L114.162,820.086L115.553,820.086ZM115.752,807.283L116.215,807.747L119.835,804.149L119.35,803.663L115.752,807.283ZM118.003,807.283L118.467,807.747L122.065,804.149L121.601,803.663L118.003,807.283ZM120.696,807.747L124.316,804.149L123.853,803.663L120.233,807.283L120.696,807.747Z" style="fill:white;fill-rule:nonzero;"/>
                </g>
                <g transform="matrix(0.57605,0,0,0.57605,-324.212,947.684)">
                    <path d="M170.606,817.217L170.606,818.607L165.22,818.607L165.22,819.358L168.31,819.358L168.31,820.462C168.31,822.242 167.976,823.927 167.306,825.517C166.636,827.106 165.698,828.504 164.492,829.711C163.285,830.918 161.887,831.859 160.297,832.536C158.708,833.213 157.023,833.552 155.242,833.552C152.564,833.552 150.107,832.786 147.87,831.256L147.87,832.757L147.693,832.757L147.693,829.115L147.053,829.115L147.053,830.66C145.537,829.424 144.341,827.923 143.466,826.157C142.59,824.391 142.152,822.492 142.152,820.462L142.152,807.394L145.464,807.394L145.464,806.643L140.055,806.643L140.055,805.252L142.152,805.252L142.152,803.023L150.872,803.023L150.872,820.462C150.872,821.654 151.299,822.676 152.152,823.53C153.006,824.384 154.036,824.81 155.242,824.81C156.449,824.81 157.476,824.387 158.322,823.541C159.168,822.695 159.591,821.668 159.591,820.462L159.591,812.669L159.525,812.736L159.282,812.471L159.061,812.228L158.819,812.471L158.576,812.736L158.311,812.471L158.046,812.736L157.825,812.471L157.582,812.228L157.384,812.427L157.097,812.736L156.589,812.228L156.876,811.897L157.075,811.698L156.876,811.499L156.589,811.168L157.097,810.661L157.384,810.97L157.582,811.168L158.046,810.661L158.311,810.926L158.576,810.661L159.061,811.168L159.525,810.661L159.591,810.727L159.591,803.023L168.31,803.023L168.31,817.217L170.606,817.217ZM165.639,811.499L165.441,811.698L165.639,811.897C165.669,811.809 165.684,811.742 165.684,811.698C165.684,811.654 165.669,811.588 165.639,811.499ZM158.311,811.941L158.554,811.698L158.311,811.455L158.068,811.698L158.311,811.941ZM152.505,831.146L152.505,829.115L147.87,829.115L147.87,831.146L152.505,831.146ZM153.278,831.146L153.278,829.115L152.726,829.115L152.726,831.146L153.278,831.146ZM154.47,831.146L154.47,829.115L154.139,829.115L154.139,831.146L154.47,831.146ZM155.861,831.146L155.861,829.115L154.823,829.115L154.823,831.146L155.861,831.146ZM158.311,831.146L158.311,829.115L156.567,829.115L156.567,831.146L158.311,831.146ZM159.79,811.941L160.033,811.698L159.79,811.455L159.547,811.698L159.79,811.941ZM160.297,812.471L160.761,812.471L160.518,812.228L160.297,812.471ZM160.518,811.168L160.761,810.926L160.297,810.926L160.518,811.168ZM161.269,811.941L161.49,811.698L161.269,811.455L161.026,811.698L161.269,811.941ZM161.754,812.471L162.24,812.471L161.997,812.228L161.754,812.471ZM161.997,811.168L162.24,810.926L161.754,810.926L161.997,811.168ZM162.726,811.941L162.968,811.698L162.726,811.455L162.505,811.698L162.726,811.941ZM163.233,812.471L163.719,812.471L163.476,812.228L163.233,812.471ZM163.476,811.168L163.719,810.926L163.233,810.926L163.476,811.168ZM164.205,811.941L164.447,811.698L164.205,811.455L163.962,811.698L164.205,811.941ZM164.911,812.471C164.97,812.471 165.043,812.456 165.132,812.427L164.955,812.228L164.712,812.471L164.911,812.471ZM164.955,811.168L165.132,810.97C165.043,810.94 164.97,810.926 164.911,810.926L164.712,810.926L164.955,811.168Z" style="fill:white;fill-rule:nonzero;"/>
                </g>
                <g transform="matrix(0.57605,0,0,0.57605,-324.212,947.684)">
                    <path d="M191.687,829.291L197.338,829.291L197.338,829.998L196.014,829.998L197.117,833.552L187.979,833.552L185.286,824.854L184.513,824.854L184.513,824.17L185.065,824.17L184.579,822.625L181.732,822.625L181.732,822.073L179.193,822.073L179.193,822.735L179.679,822.735L179.679,833.552L170.959,833.552L170.959,829.711L168.487,829.711L168.487,828.673L170.959,828.673L170.959,813.045L169.657,812.427L170.959,811.809L170.959,811.455L169.657,810.837L170.959,810.241L170.959,809.866L169.657,809.27L170.959,808.652L170.959,808.277L169.657,807.681L170.959,807.063L170.959,806.687L169.657,806.091L170.959,805.473L170.959,805.12L169.657,804.502L170.959,803.884L170.959,803.023L187.316,803.023C190.112,803.023 192.482,804.038 194.424,806.069L191.709,806.069L191.709,808.122L195.925,808.122C196.72,809.55 197.117,811.117 197.117,812.824C197.117,814.413 196.761,815.896 196.047,817.272C195.333,818.648 194.358,819.792 193.122,820.704L195.66,828.894L191.488,828.894L191.488,829.578L191.687,829.578L191.687,829.291ZM170.959,829.578L170.959,828.806L168.619,828.806L168.619,829.578L170.959,829.578ZM193.122,811.433L192.923,811.632L193.122,811.831C193.137,811.786 193.144,811.72 193.144,811.632C193.144,811.544 193.137,811.477 193.122,811.433ZM192.371,810.859L192.173,810.859L192.416,811.102L192.614,810.903C192.526,810.874 192.445,810.859 192.371,810.859ZM192.416,812.162L192.173,812.405L192.371,812.405C192.445,812.405 192.526,812.39 192.614,812.36L192.416,812.162ZM191.687,811.389L191.444,811.632L191.687,811.875L191.908,811.632L191.687,811.389ZM191.179,810.859L190.716,810.859L190.937,811.102L191.179,810.859ZM190.937,812.162L190.716,812.405L191.179,812.405L190.937,812.162ZM189.7,810.859L189.237,810.859L189.48,811.102L189.7,810.859ZM188.244,810.859L187.758,810.859L188.001,811.102L188.244,810.859ZM187.25,811.389L187.029,811.632L187.25,811.875L187.493,811.632L187.25,811.389ZM186.765,810.859L186.279,810.859L186.522,811.102L186.765,810.859ZM185.793,811.389L185.55,811.632L185.793,811.875L186.014,811.632L185.793,811.389ZM185.087,810.859C185.028,810.859 184.954,810.874 184.866,810.903L185.043,811.102L185.286,810.859L185.087,810.859ZM187.316,813.906C187.611,813.906 187.865,813.799 188.078,813.586C188.291,813.372 188.398,813.118 188.398,812.824C188.398,812.75 188.383,812.655 188.354,812.537L188.221,812.405L188.001,812.162L187.515,812.669L187.25,812.405L186.985,812.669L186.522,812.162L186.058,812.669L185.793,812.405L185.528,812.669L185.043,812.162L184.866,812.36L184.579,812.669L184.049,812.162L184.358,811.831L184.557,811.632L184.358,811.433C184.329,811.522 184.314,811.588 184.314,811.632C184.314,811.647 184.318,811.665 184.325,811.687C184.333,811.709 184.336,811.728 184.336,811.742L179.679,811.742L179.679,813.906L187.316,813.906ZM188.729,811.875L188.972,811.632L188.729,811.389L188.486,811.632L188.729,811.875ZM189.237,812.405L189.7,812.405L189.48,812.162L189.237,812.405ZM190.208,811.875L190.451,811.632L190.208,811.389L189.965,811.632L190.208,811.875ZM195.859,830.66L195.859,829.998L191.687,829.998L191.687,829.976L190.451,829.976L190.451,830.66L195.859,830.66Z" style="fill:white;fill-rule:nonzero;"/>
                </g>
                <g transform="matrix(0.57605,0,0,0.57605,-324.212,947.684)">
                    <path d="M217.404,806.864L218.883,812.36L205.152,808.961L206.764,803.023L216.366,803.023L216.962,805.23L217.161,805.054L217.624,805.539L218.11,805.054L218.375,805.297L218.64,805.054L219.103,805.539L219.302,805.341L219.567,805.054L220.097,805.539L219.788,805.871L219.611,806.069L219.788,806.29L220.097,806.599L219.567,807.107L219.302,806.798L219.103,806.599L218.618,807.107L218.375,806.864L218.11,807.107L217.624,806.599L217.404,806.864ZM218.375,805.826L218.132,806.069L218.375,806.334L218.596,806.069L218.375,805.826ZM211.046,806.29L211.223,806.069L211.046,805.871C211.017,805.959 211.002,806.025 211.002,806.069C211.002,806.128 211.017,806.202 211.046,806.29ZM211.775,806.864L211.973,806.842L211.731,806.599L211.532,806.798C211.664,806.842 211.745,806.864 211.775,806.864ZM211.731,805.539L211.973,805.297L211.775,805.297C211.701,805.297 211.62,805.311 211.532,805.341L211.731,805.539ZM212.481,806.334L212.702,806.069L212.481,805.826L212.238,806.069L212.481,806.334ZM212.967,806.864L213.452,806.864L213.21,806.599L212.967,806.864ZM213.21,805.539L213.452,805.297L212.967,805.297L213.21,805.539ZM213.938,806.334L214.181,806.069L213.938,805.826L213.717,806.069L213.938,806.334ZM214.446,806.864L214.909,806.864L214.689,806.599L214.446,806.864ZM214.689,805.539L214.909,805.297L214.446,805.297L214.689,805.539ZM215.417,806.334L215.66,806.069L215.417,805.826L215.174,806.069L215.417,806.334ZM215.925,806.864L216.388,806.864L216.145,806.599L215.925,806.864ZM216.145,805.539L216.388,805.297L215.925,805.297L216.145,805.539ZM216.896,806.334L217.139,806.069L216.896,805.826L216.653,806.069L216.896,806.334ZM222.481,825.649L225.13,825.649L225.13,827.547L222.988,827.547L223.209,828.386L219.766,828.386L219.766,827.547L219.589,827.547L219.589,828.563L223.253,828.563L224.6,833.552L215.571,833.552L215.042,831.609L214.975,831.499L214.181,832.735L213.386,831.499L212.591,832.713L211.797,831.499L211.002,832.735L210.207,831.499L209.523,832.558L202.901,817.305L205.108,809.115L218.927,812.537L222.481,825.649ZM206.985,819.711L206.985,820.395L207.183,820.395L207.183,820.108L212.393,820.108L212.393,819.711L211.797,819.711L211.554,818.828L211.311,819.711L206.985,819.711ZM210.516,822.647L212.591,822.647L212.106,820.815L207.183,820.815L207.183,820.771L205.969,820.771L205.969,821.477L210.848,821.477L210.516,822.647ZM224.953,827.393L224.953,825.826L222.525,825.826L222.724,826.576L219.589,826.576L219.589,827.393L219.766,827.393L219.766,826.731L222.768,826.731L222.944,827.393L224.953,827.393ZM198.508,833.552L202.835,817.57L209.391,832.691L208.618,831.499L207.845,832.735L207.801,832.669L207.559,833.552L198.508,833.552Z" style="fill:white;fill-rule:nonzero;"/>
                </g>
                <g transform="matrix(0.57605,0,0,0.57605,-324.212,947.684)">
                    <path d="M230.427,817.592L230.361,817.614L232.238,833.552L227.315,833.552L227.315,813.861C227.021,813.773 226.778,813.6 226.587,813.343C226.395,813.085 226.3,812.802 226.3,812.493L226.3,804.568C226.3,804.259 226.395,803.98 226.587,803.729C226.778,803.479 227.021,803.31 227.315,803.222L227.315,803.023L236.034,803.023L236.034,816.29L230.427,817.592ZM227.734,808.343L227.734,808.519L231.355,808.519L231.355,806.533L227.734,806.533L227.734,806.709L231.178,806.709L231.178,808.343L227.734,808.343ZM253.473,829.181L255.901,829.181L255.901,830.572L244.842,830.572L244.842,831.322L253.473,831.322L253.473,833.552L232.392,833.552L230.538,817.747L236.034,816.466L236.034,821.587L235.019,821.587L235.019,823.155L237.624,823.155L237.624,819.181L238.33,819.181L238.33,823.155L241.663,823.155L241.663,823.773L238.33,823.773L238.33,824.81L253.473,824.832L253.473,829.181ZM237.624,824.81L237.624,823.773L236.034,823.773L236.034,824.81L237.624,824.81Z" style="fill:white;fill-rule:nonzero;"/>
                </g>
                <g transform="matrix(0.57605,0,0,0.57605,-324.212,947.684)">
                    <path d="M262.236,815.385L262.236,813.001L265.57,813.001L265.57,813.906L272.236,813.906L272.236,815.385L262.236,815.385ZM265.592,833.552L265.062,833.552L265.062,824.545L265.592,824.545L265.592,833.552ZM286.496,805.539L270.316,805.539L270.316,806.268L280.514,806.268C282.192,808.137 283.03,810.322 283.03,812.824C283.03,814.59 282.593,816.227 281.717,817.735C280.841,819.244 279.649,820.436 278.141,821.312C276.633,822.187 274.995,822.625 273.229,822.625L265.592,822.625L265.592,824.17L265.062,824.17L265.062,823.596L264.709,823.596L264.709,833.552L256.85,833.552L256.85,833.088L256.387,833.552L255.416,832.558L256.85,831.101L256.85,830.572L256.387,831.035L255.416,830.042L256.85,828.585L256.85,828.077L256.387,828.519L255.416,827.525L256.85,826.091L256.85,825.561L256.387,826.024L255.416,825.031L256.85,823.574L256.85,823.044L256.387,823.508L255.416,822.515L256.85,821.08L256.85,820.55L256.387,821.014L255.416,820.02L256.85,818.563L256.85,818.033L256.387,818.497L255.416,817.504L256.85,816.047L256.85,815.539L256.387,816.003L255.416,815.009L256.85,813.552L256.85,803.641L255.327,803.641L255.327,802.383L264.113,802.383L264.113,803.023L273.229,803.023C274.848,803.023 276.357,803.391 277.755,804.127L286.496,804.127L286.496,805.539ZM255.46,803.509L256.85,803.509L256.85,803.023L263.958,803.023L263.958,802.537L255.46,802.537L255.46,803.509ZM273.229,811.742L265.57,811.742L265.57,812.736L261.994,812.736L261.994,815.627L272.479,815.627L272.479,813.906L273.229,813.906C273.524,813.906 273.778,813.799 273.991,813.586C274.204,813.372 274.311,813.118 274.311,812.824C274.311,812.53 274.204,812.276 273.991,812.062C273.778,811.849 273.524,811.742 273.229,811.742Z" style="fill:white;fill-rule:nonzero;"/>
                </g>
                <g transform="matrix(0.57605,0,0,0.57605,-324.212,947.684)">
                    <path d="M300.226,806.864L301.705,812.36L287.975,808.961L289.587,803.023L299.189,803.023L299.785,805.23L299.983,805.054L300.447,805.539L300.933,805.054L301.198,805.297L301.462,805.054L301.926,805.539L302.125,805.341L302.39,805.054L302.919,805.539L302.61,805.871L302.434,806.069L302.61,806.29L302.919,806.599L302.39,807.107L302.125,806.798L301.926,806.599L301.44,807.107L301.198,806.864L300.933,807.107L300.447,806.599L300.226,806.864ZM301.198,805.826L300.955,806.069L301.198,806.334L301.418,806.069L301.198,805.826ZM293.869,806.29L294.046,806.069L293.869,805.871C293.839,805.959 293.825,806.025 293.825,806.069C293.825,806.128 293.839,806.202 293.869,806.29ZM294.597,806.864L294.796,806.842L294.553,806.599L294.355,806.798C294.487,806.842 294.568,806.864 294.597,806.864ZM294.553,805.539L294.796,805.297L294.597,805.297C294.524,805.297 294.443,805.311 294.355,805.341L294.553,805.539ZM295.304,806.334L295.524,806.069L295.304,805.826L295.061,806.069L295.304,806.334ZM295.789,806.864L296.275,806.864L296.032,806.599L295.789,806.864ZM296.032,805.539L296.275,805.297L295.789,805.297L296.032,805.539ZM296.761,806.334L297.003,806.069L296.761,805.826L296.54,806.069L296.761,806.334ZM297.268,806.864L297.732,806.864L297.511,806.599L297.268,806.864ZM297.511,805.539L297.732,805.297L297.268,805.297L297.511,805.539ZM298.24,806.334L298.482,806.069L298.24,805.826L297.997,806.069L298.24,806.334ZM298.747,806.864L299.211,806.864L298.968,806.599L298.747,806.864ZM298.968,805.539L299.211,805.297L298.747,805.297L298.968,805.539ZM299.719,806.334L299.961,806.069L299.719,805.826L299.476,806.069L299.719,806.334ZM305.303,825.649L307.952,825.649L307.952,827.547L305.811,827.547L306.032,828.386L302.588,828.386L302.588,827.547L302.412,827.547L302.412,828.563L306.076,828.563L307.423,833.552L298.394,833.552L297.864,831.609L297.798,831.499L297.003,832.735L296.209,831.499L295.414,832.713L294.619,831.499L293.825,832.735L293.03,831.499L292.346,832.558L285.724,817.305L287.931,809.115L301.749,812.537L305.303,825.649ZM289.807,819.711L289.807,820.395L290.006,820.395L290.006,820.108L295.215,820.108L295.215,819.711L294.619,819.711L294.377,818.828L294.134,819.711L289.807,819.711ZM293.339,822.647L295.414,822.647L294.928,820.815L290.006,820.815L290.006,820.771L288.792,820.771L288.792,821.477L293.67,821.477L293.339,822.647ZM307.776,827.393L307.776,825.826L305.348,825.826L305.546,826.576L302.412,826.576L302.412,827.393L302.588,827.393L302.588,826.731L305.59,826.731L305.767,827.393L307.776,827.393ZM281.331,833.552L285.657,817.57L292.213,832.691L291.441,831.499L290.668,832.735L290.624,832.669L290.381,833.552L281.331,833.552Z" style="fill:white;fill-rule:nonzero;"/>
                </g>
                <g transform="matrix(0.57605,0,0,0.57605,-324.212,947.684)">
                    <path d="M318.702,812.096L318.702,821.036L319.144,821.036L319.144,821.72L315.458,821.72L315.458,823.133L318.702,823.133L318.725,833.905L310.866,833.905L310.866,824.678L310.38,824.678L310.38,833.905L309.983,833.905L309.983,811.014L318.658,811.014L318.658,812.096L318.702,812.096ZM310.866,824.303L310.866,822.117L310.38,822.117L310.38,824.303L310.866,824.303ZM318.702,808.873L319.983,808.873L319.983,810.285L309.983,810.285L309.983,803.376L318.702,803.376L318.702,808.873Z" style="fill:white;fill-rule:nonzero;"/>
                </g>
                <g transform="matrix(0.57605,0,0,0.57605,-324.212,947.684)">
                    <path d="M347.686,820.837L347.686,833.552L338.967,833.552L338.967,833.485L330.269,819.512L330.269,828.342L332.366,828.342L332.366,830.02L331.483,830.02L331.483,829.181L322.632,829.181L322.632,830.02L330.269,830.02L330.269,830.439L325.126,830.439L325.126,831.146L330.269,831.146L330.269,833.552L321.528,833.552L321.55,809.292L323.426,809.292L323.426,810.948L323.89,810.948L323.89,809.292L325.06,809.292L325.06,808.608L326.428,808.608L326.428,807.769L323.89,807.769L323.89,806.864L323.426,806.864L323.426,807.769L321.55,807.769L321.55,806.864L319.409,806.864L319.409,806.025L321.55,806.025L321.55,803.023L330.269,803.023L338.967,816.974L338.967,813.751C338.687,813.648 338.459,813.475 338.282,813.232C338.106,812.99 338.017,812.714 338.017,812.405L338.017,804.48C338.017,804.171 338.106,803.895 338.282,803.652C338.459,803.409 338.687,803.236 338.967,803.133L338.967,803.023L347.686,803.023L347.686,804.943L350.225,804.943L350.225,806.356L339.452,806.356L339.452,807.085L347.686,807.085L347.686,819.557L348.988,818.254L349.629,818.894L347.686,820.837ZM323.89,806.025L323.89,804.259L323.426,804.259L323.426,806.025L323.89,806.025ZM338.834,822.029L339.121,822.316L342.565,818.894L342.256,818.585L338.834,822.029ZM341.064,822.029L341.373,822.316L344.794,818.894L344.507,818.585L341.064,822.029ZM343.315,822.029L343.602,822.316L347.046,818.894L346.737,818.585L343.315,822.029ZM345.854,822.316L349.275,818.894L348.988,818.585L345.545,822.029L345.854,822.316Z" style="fill:white;fill-rule:nonzero;"/>
                </g>
            </g>
        </g>
    </g>
</svg>
